<?xml version="1.0" encoding="UTF-8"?>
<svg id="Layer_1" data-name="Layer 1" xmlns="http://www.w3.org/2000/svg" viewBox="0 0 896.22 513.94">
  <path id="L" d="m185.2,19.09l-110.59,14.91s-36,7-51,47c0,0-2,5,2,6,3.07.77,5-3,5-3L185.2,28.99v-9.9Z" fill="#fff" stroke="#000" stroke-miterlimit="10" stroke-width="4"/>
  <path id="R" d="m710.61,18.6l110.59,14.91s36,7,51,47c0,0,2,5-2,6-3.07.77-5-3-5-3l-154.59-55.01v-9.9Z" fill="#fff" stroke="#000" stroke-miterlimit="10" stroke-width="4"/>
  <path id="BODY" d="m448.39,511.94c168.78,0,241.22-26.2,241.22-26.2,0,0,77-32,137-42s66.11-70.99,67-79c3-27-6-116-7-127-1-11-15-129-20-151-5-22-23-23-23-23,0,0-80.71-11.43-121-38-36-23.74-85.28-23.74-85.28-23.74h-189.22s-189.22,0-189.22,0c0,0-49.28,0-85.28,23.74-40.29,26.57-121,38-121,38,0,0-18,1-23,23S10.61,226.74,9.61,237.74-.39,337.74,2.61,364.74c.89,8.01,7,69,67,79s137,42,137,42c0,0,72.44,26.2,241.22,26.2h.56Z" fill="#fff" stroke="#000" stroke-miterlimit="10" stroke-width="4"/>
  <circle id="B" cx="736.61" cy="223" r="29" fill="#fff" stroke="#000" stroke-miterlimit="10" stroke-width="4"/>
  <circle id="A" cx="820.61" cy="194" r="29" fill="#fff" stroke="#000" stroke-miterlimit="10" stroke-width="4"/>
  <circle id="START" cx="177.61" cy="338" r="14" fill="#fff" stroke="#000" stroke-miterlimit="10" stroke-width="4"/>
  <circle id="SELECT" cx="177.61" cy="389" r="14" fill="#fff" stroke="#000" stroke-miterlimit="10" stroke-width="4"/>
  <path id="LEFT" d="m59.11,203.13v20.74c0,4.21,3.59,7.63,8.02,7.63h32.98v-36h-32.98c-4.43,0-8.02,3.42-8.02,7.63Z" fill="#fff"/>
  <path id="DOWN" d="m105.74,270.5h20.74c4.21,0,7.63-3.59,7.63-8.02v-32.98h-36v32.98c0,4.43,3.42,8.02,7.63,8.02Z" fill="#fff"/>
  <path id="RIGHT" d="m173.11,223.87v-20.74c0-4.21-3.59-7.63-8.02-7.63h-32.98v36h32.98c4.43,0,8.02-3.42,8.02-7.63Z" fill="#fff"/>
  <path id="UP" d="m126.48,156.5h-20.74c-4.21,0-7.63,3.59-7.63,8.02v32.98s36,0,36,0v-32.98c0-4.43-3.42-8.02-7.63-8.02Z" fill="#fff"/>
  <path id="SCREEN" d="m673.92,97.9c-5-25-29-29-29-29,0,0-75.03-12.4-197.81-12.4s-197.5,12.5-197.5,12.5c0,0-24,4-29,29s-16,252-14,288,43,49.26,43,49.26c0,0,94.72,22.24,197.5,22.24s197.81-22.34,197.81-22.34c0,0,41-13.26,43-49.26s-9-263-14-288Z" fill="#fff" stroke="#000" stroke-miterlimit="10" stroke-width="4"/>
  <path id="UP-ADDITIONAL_0" d="m98.11,195.5v-31.37c0-4.21,3.42-7.63,7.63-7.63h20.74c4.21,0,7.63,3.42,7.63,7.63v31.37h31.37c4.21,0,7.63,3.42,7.63,7.63v20.74c0,4.21-3.42,7.63-7.63,7.63h-31.37v31.37c0,4.21-3.42,7.63-7.63,7.63h-20.74c-4.21,0-7.63-3.42-7.63-7.63,0,0,0-31.37,0-31.37h-31.37c-4.21,0-7.63-3.42-7.63-7.63v-20.74c0-4.21,3.42-7.63,7.63-7.63,0,0,31.37,0,31.37,0Z" fill="none" stroke="#000" stroke-miterlimit="10" stroke-width="4"/>
</svg>